<?xml version="1.0" encoding="utf-8"?>
<!-- Generator: Adobe Illustrator 19.0.0, SVG Export Plug-In . SVG Version: 6.00 Build 0)  -->
<svg version="1.1" id="图层_1" xmlns="http://www.w3.org/2000/svg" xmlns:xlink="http://www.w3.org/1999/xlink" x="0px" y="0px"
	 viewBox="0 0 128 128" style="enable-background:new 0 0 128 128;" xml:space="preserve">
<style type="text/css">
	.st0{fill:#EC6C00;}
	.st1{fill:#BE2E8A;}
	.st2{fill:#0068B6;}
	.st3{fill:#7D4697;}
	.st4{fill:#18B7CD;}
	.st5{fill:#9CC715;}
	.st6{fill:#E5003E;}
	.st7{fill:#FBC600;}
	.st8{fill:#E7437D;}
</style>
<polygon id="XMLID_13_" class="st0" points="51.2,25.6 25.6,25.6 25.6,25.6 25.6,25.6 0,25.6 0,25.6 12.8,38.4 25.6,51.2 25.6,51.2 
	25.6,51.2 51.2,51.2 51.2,51.2 51.2,25.6 "/>
<polygon id="XMLID_12_" class="st1" points="128,25.6 102.4,25.6 102.4,25.6 102.4,25.6 89.6,38.4 76.8,51.2 76.8,51.2 102.4,51.2 
	102.4,51.2 102.4,51.2 115.2,38.4 "/>
<polygon id="XMLID_11_" class="st2" points="128,76.8 102.4,76.8 102.4,76.8 102.4,76.8 89.6,89.6 102.4,102.4 102.4,102.4 
	102.4,102.4 115.2,89.6 "/>
<polygon id="XMLID_10_" class="st3" points="115.2,64 102.4,51.2 102.4,51.2 102.4,51.2 76.8,51.2 89.6,64 102.4,76.8 102.4,76.8 
	102.4,76.8 128,76.8 128,76.8 "/>
<polygon id="XMLID_9_" class="st4" points="89.6,89.6 89.6,89.6 76.8,76.8 76.8,76.8 76.8,76.8 51.2,76.8 64,89.6 76.8,102.4 
	76.8,102.4 76.8,102.4 76.8,102.4 102.4,102.4 "/>
<polygon id="XMLID_8_" class="st2" points="102.4,102.4 76.8,102.4 76.8,102.4 76.8,102.4 64,115.2 64,115.2 51.2,128 76.8,128 
	76.8,128 76.8,128 76.8,128 89.6,115.2 "/>
<polygon id="XMLID_7_" class="st4" points="115.2,115.2 102.4,102.4 102.4,102.4 102.4,102.4 89.6,115.2 102.4,128 102.4,128 
	102.4,128 128,128 128,128 "/>
<polygon id="XMLID_6_" class="st5" points="76.8,25.6 64,38.4 51.2,51.2 51.2,51.2 51.2,51.2 51.2,51.2 51.2,51.2 51.2,76.8 64,64 
	76.8,51.2 76.8,51.2 76.8,51.2 76.8,25.6 "/>
<polygon id="XMLID_5_" class="st6" points="51.2,51.2 38.4,64 25.6,76.8 25.6,76.8 25.6,76.8 25.6,76.8 25.6,76.8 25.6,102.4 
	25.6,102.4 25.6,102.4 25.6,102.4 25.6,128 38.4,115.2 51.2,102.4 51.2,102.4 51.2,102.4 51.2,76.8 51.2,76.8 51.2,51.2 "/>
<polygon id="XMLID_4_" class="st6" points="38.4,12.8 25.6,0 25.6,25.6 25.6,25.6 51.2,25.6 "/>
<polygon id="XMLID_3_" class="st7" points="25.6,51.2 25.6,51.2 25.6,51.2 25.6,51.2 12.8,64 0,76.8 0,76.8 0,76.8 0,76.8 0,76.8 
	0,102.4 12.8,89.6 25.6,76.8 25.6,76.8 25.6,76.8 25.6,76.8 38.4,64 51.2,51.2 "/>
<polygon id="XMLID_2_" class="st8" points="102.4,25.6 128,25.6 115.2,12.8 102.4,0 102.4,0 102.4,0 76.8,0 76.8,0 76.8,0 76.8,0 
	51.2,0 51.2,0 64,12.8 76.8,25.6 76.8,25.6 76.8,25.6 76.8,25.6 102.4,25.6 102.4,25.6 102.4,25.6 "/>
</svg>
